<svg width="0" height="0" style="position:absolute"><symbol fill="none" viewBox="0 0 10 13" id="db7d9a595b1a1972ff770d0db49da607" xmlns="http://www.w3.org/2000/svg"><path d="M9.237 3.875A1.88 1.88 0 007.362 2a1.866 1.866 0 00-1.875 1.875c0 .867.562 1.594 1.336 1.805-.024.375-.094.68-.258.867-.352.445-1.149.539-1.992.61-.657.046-1.36.116-1.899.398V4.18a1.9 1.9 0 001.313-1.805A1.88 1.88 0 002.112.5 1.866 1.866 0 00.237 2.375c0 .844.539 1.57 1.312 1.805v4.664a1.864 1.864 0 00-1.312 1.781c0 1.055.82 1.875 1.875 1.875 1.031 0 1.875-.82 1.875-1.875 0-.797-.516-1.477-1.219-1.734a.96.96 0 01.352-.329c.375-.187.96-.234 1.546-.28 1.008-.095 2.11-.212 2.79-1.032.328-.398.492-.938.492-1.594a1.85 1.85 0 001.289-1.781zM2.112 2c.187 0 .375.188.375.375 0 .21-.188.375-.375.375a.37.37 0 01-.375-.375c0-.188.164-.375.375-.375zm0 9a.37.37 0 01-.375-.375c0-.188.164-.375.375-.375.187 0 .375.188.375.375 0 .21-.188.375-.375.375zm5.25-7.5c.187 0 .375.188.375.375 0 .21-.188.375-.375.375a.37.37 0 01-.375-.375c0-.188.164-.375.375-.375z" fill="#000"/></symbol></svg>