<svg width="0" height="0" style="position:absolute"><symbol viewBox="0 0 16 16" id="493475ea9efe62dd052416da8239ebc5" xmlns="http://www.w3.org/2000/svg"><path d="M0 0v6.4h3.29c.105-.853.33-1.943.8-2.37.439-.399 1.487-.611 2.31-.72V0H0zm7.52 3.84c-.384 0-2.519.223-3 .66-.524.476-.68 2.786-.68 3.02 0 .348.185 2.525.66 3 .37.406 1.839.588 2.59.65a4.746 4.746 0 011.35-2.73 4.746 4.746 0 012.73-1.35c-.065-.758-.255-2.195-.63-2.57-.476-.524-2.786-.68-3.02-.68zm4.32 3.84a4.141 4.141 0 00-2.95 1.21 4.141 4.141 0 00-1.21 2.95c0 1.117.428 2.168 1.21 2.95A4.141 4.141 0 0011.84 16a4.141 4.141 0 002.95-1.21A4.141 4.141 0 0016 11.84a4.141 4.141 0 00-1.21-2.95 4.141 4.141 0 00-2.95-1.21z"/></symbol></svg>