<svg width="0" height="0" style="position:absolute"><symbol viewBox="0 0 16 15" id="74ce3ed6b280c803af71b575d0520c82" xmlns="http://www.w3.org/2000/svg"><path d="M6.426 14.75c.054.027.11.027.164-.027.055-.028.082-.082.11-.137l3.855-13.234a.508.508 0 00-.055-.192c-.027-.055-.055-.082-.11-.082L9.325.75c-.054 0-.11 0-.164.027-.055.055-.11.082-.11.137L5.196 14.148c0 .082 0 .137.028.192a.15.15 0 00.136.082l1.067.328zm-2.27-3.309c-.054.055-.11.055-.164.055-.054 0-.11 0-.164-.055L.082 7.914C.027 7.86 0 7.804 0 7.75c0-.055.027-.11.082-.164l3.746-3.527c.055-.028.11-.055.164-.055.055 0 .11.027.164.055l.739.793a.507.507 0 01.054.191.15.15 0 01-.082.137L1.97 7.75l2.898 2.57c.055.055.082.11.082.164 0 .055-.027.11-.054.164l-.739.793zm7.766 0c-.055.055-.11.055-.164.055-.055 0-.11 0-.164-.055l-.739-.793c-.054-.054-.054-.109-.054-.164 0-.054.027-.109.082-.164l2.898-2.57-2.898-2.57a.15.15 0 01-.082-.137c0-.055 0-.137.054-.191l.739-.793a.388.388 0 01.164-.055c.055 0 .11.027.164.055l3.746 3.527c.055.055.082.11.082.164 0 .055-.027.11-.082.164l-3.746 3.527z"/></symbol></svg>