<svg width="0" height="0" style="position:absolute"><symbol fill="none" viewBox="0 0 14 13" id="90d42380c69d94693963c4d213e4e4ad" xmlns="http://www.w3.org/2000/svg"><path d="M12.375 7.25c.305 0 .563.117.797.328.21.234.328.492.328.797v3c0 .328-.117.586-.328.797a1.062 1.062 0 01-.797.328H1.125c-.328 0-.586-.094-.797-.328C.094 11.96 0 11.703 0 11.375v-3c0-.305.094-.563.328-.797.211-.21.469-.328.797-.328h2.156L2.203 6.172a1.062 1.062 0 01-.328-.797c0-.305.117-.563.328-.797.211-.21.469-.328.797-.328h1.5V1.625c0-.305.094-.563.328-.797C5.04.618 5.297.5 5.625.5h2.25c.305 0 .563.117.797.328.21.235.328.492.328.797V4.25h1.5c.328 0 .586.117.797.328.21.234.328.492.328.797 0 .305-.094.563-.328.797L10.219 7.25h2.156zM3 5.375l3.75 3.75 3.75-3.75H7.875v-3.75h-2.25v3.75H3zm9.375 6v-3H9.094L7.547 9.922a1.062 1.062 0 01-.797.328c-.328 0-.586-.094-.797-.328L4.406 8.375H1.125v3h11.25zm-2.063-1.5c0 .164.047.305.165.398.093.118.234.165.398.165a.565.565 0 00.563-.563c0-.14-.07-.281-.165-.398a.665.665 0 00-.398-.165.565.565 0 00-.398.165.549.549 0 00-.165.398z" fill="#000"/></symbol></svg>