<svg width="0" height="0" style="position:absolute"><symbol fill="none" viewBox="0 0 13 13" id="9787d3690617570d9c69aa6a8913c08e" xmlns="http://www.w3.org/2000/svg"><path d="M10.938.625H1.312C.575.625 0 1.227 0 1.938v9.624c0 .739.574 1.313 1.313 1.313h9.624c.711 0 1.313-.574 1.313-1.313V1.938A1.33 1.33 0 0010.937.625zm-.165 10.938H1.477c-.11 0-.165-.055-.165-.165V2.102c0-.082.055-.164.165-.164h9.296c.082 0 .165.082.165.164v9.296c0 .11-.083.165-.165.165zM9.297 3.25H5.578c-.3 0-.465.355-.246.574l1.313 1.313-3.938 3.937c-.137.137-.137.356 0 .465l.629.629c.11.137.328.137.465 0L7.738 6.23l1.313 1.313c.219.191.574.055.574-.246V3.578a.353.353 0 00-.328-.328z" fill="#000"/></symbol></svg>