<svg width="0" height="0" style="position:absolute"><symbol fill="none" viewBox="0 0 10 13" id="133a31a322a9db34b2b368918dd4993c" xmlns="http://www.w3.org/2000/svg"><path d="M9.5 3.36c0-.118-.094-.305-.188-.4L7.04.689A.578.578 0 006.641.5H6.5v3h3v-.14zm-3.188.89a.542.542 0 01-.562-.563V.5H1.062a.555.555 0 00-.562.563v10.874c0 .329.234.563.563.563h7.875a.555.555 0 00.562-.563V4.25H6.312zm-2.93 5.648a.178.178 0 01-.093.047.178.178 0 01-.094-.047l-1.523-1.43c-.024 0-.024-.046-.024-.093 0-.023 0-.07.024-.07l1.523-1.43a.178.178 0 01.094-.047c.023 0 .07.024.094.047l.445.492c.024.024.047.047.047.094 0 .023-.023.07-.047.094l-.96.82.96.844c.024.023.047.07.047.094 0 .046-.023.07-.047.093l-.445.492zm1.196 1.172l-.633-.164c-.07-.023-.093-.07-.093-.14v-.024l1.43-4.969c.023-.046.07-.093.116-.093.024 0 .047 0 .047.023l.633.164c.07.024.094.07.094.14v.024L4.742 11c-.023.047-.07.094-.117.094-.023 0-.047 0-.047-.024zM8.352 8.47l-1.524 1.43a.178.178 0 01-.094.046.178.178 0 01-.093-.047l-.446-.492c-.023-.023-.047-.047-.047-.094 0-.023.024-.07.047-.093l.961-.844-.96-.82a.178.178 0 01-.048-.094c0-.047.024-.07.047-.094l.446-.492a.178.178 0 01.093-.047c.024 0 .07.024.094.047l1.524 1.43c.023 0 .046.047.046.07 0 .047-.023.094-.046.094z" fill="#000"/></symbol></svg>