<svg width="0" height="0" style="position:absolute"><symbol fill="none" viewBox="0 0 10 13" id="46ce669d458952f4dec5c351e6c3ee98" xmlns="http://www.w3.org/2000/svg"><path d="M5.75 3.688V.5H1.062a.555.555 0 00-.562.563v10.874c0 .329.234.563.563.563h7.875a.555.555 0 00.562-.563V4.25H6.312a.542.542 0 01-.562-.563zm1.5 5.53c0 .165-.14.282-.281.282H3.03a.27.27 0 01-.281-.281V9.03c0-.14.117-.281.281-.281H6.97c.14 0 .281.14.281.281v.188zm0-1.5c0 .165-.14.282-.281.282H3.03a.27.27 0 01-.281-.281V7.53c0-.14.117-.281.281-.281H6.97c.14 0 .281.14.281.281v.188zm0-1.687v.188c0 .164-.14.281-.281.281H3.03a.27.27 0 01-.281-.281V6.03c0-.14.117-.281.281-.281H6.97c.14 0 .281.14.281.281zM9.5 3.36c0-.14-.07-.28-.164-.398L7.039.664A.665.665 0 006.641.5H6.5v3h3v-.14z" fill="#000"/></symbol></svg>